<svg width="22px" height="22px" viewBox="0 0 22 22" xmlns="http://www.w3.org/2000/svg"><path cx="16.5" cy="18.5" r="1.5" d="M16.5 16.958A1.375 1.375 0 0 1 15.125 18.333A1.375 1.375 0 0 1 13.75 16.958A1.375 1.375 0 0 1 16.5 16.958z"/><path cx="9.5" cy="18.5" r="1.5" d="M10.083 16.958A1.375 1.375 0 0 1 8.708 18.333A1.375 1.375 0 0 1 7.333 16.958A1.375 1.375 0 0 1 10.083 16.958z"/><path d="M16.5 14.667H7.333a0.917 0.917 0 0 1 -0.878 -0.654L3.901 5.5H2.75a0.917 0.917 0 0 1 0 -1.833h1.833a0.917 0.917 0 0 1 0.878 0.654L5.815 5.5H19.25a0.917 0.917 0 0 1 0.859 1.239l-2.75 7.333A0.917 0.917 0 0 1 16.5 14.667m-8.485 -1.833h7.849l2.063 -5.5H6.365z"/></svg>